<svg width="50" height="50" viewBox="0 0 50 50" fill="none" xmlns="http://www.w3.org/2000/svg">
  <path d="M25 2.083c-6.364 0-11.52 5.297-11.52 11.938v3.531h11.52V11.25h4.59c2.644 0 4.79 2.17 4.79 4.844v3.531c0 2.673-2.145 4.844-4.79 4.844h-8.333c-2.646 0-4.791 2.17-4.791 4.844v3.531c0 2.673 2.145 4.844 4.791 4.844h4.59v-3.302c0-6.641 5.156-11.938 11.52-11.938 6.364 0 11.52 5.297 11.52 11.938v3.531c0 6.641-5.156 11.938-11.52 11.938H11.52C5.156 48.958 0 43.661 0 37.02v-3.531C0 26.848 5.156 21.552 11.52 21.552h4.59v3.302c0 6.641 5.156 11.938 11.52 11.938 6.364 0 11.52-5.297 11.52-11.938v-3.531c0-6.641-5.156-11.938-11.52-11.938H25V2.083z" fill="#3776AB"/>
  <path d="M17.708 17.708a2.083 2.083 0 1 0 0-4.167 2.083 2.083 0 0 0 0 4.167zM32.292 32.292a2.083 2.083 0 1 0 0-4.167 2.083 2.083 0 0 0 0 4.167z" fill="#FFD43B"/>
</svg>
